<?xml version="1.0" encoding="UTF-8" standalone="no"?>
<svg
        height="800px"
        width="800px"
        version="1.1"
        viewBox="0 0 512 512"
        xmlns="http://www.w3.org/2000/svg"
>
    <path
            style="fill:#28aef0;"
            d="M 105.25436,44.15339 H 405.40767 L 512,149.40775 255.55401,468.29276 -0.44599303,149.40775 Z"/>
    <path
            style="fill:#ffffff"
            d="M 426.244,93.358 C 411.008,89.884 399.013,77.89 395.539,62.652 c -0.262,-1.148 -1.781,-1.148 -2.042,0 -3.474,15.236 -15.468,27.231 -30.705,30.706 -1.148,0.262 -1.148,1.781 0,2.042 15.236,3.474 27.231,15.467 30.705,30.705 0.262,1.148 1.781,1.148 2.042,0 3.474,-15.238 15.468,-27.231 30.705,-30.705 1.147,-0.261 1.147,-1.78 0,-2.042 z"/>
    <path
            style="fill:#ffffff"
            d="m 386.731,157.426 c -11.789,-3.053 -21.07,-12.335 -24.124,-24.124 -0.307,-1.184 -1.839,-1.184 -2.146,0 -3.053,11.789 -12.335,21.07 -24.124,24.124 -1.184,0.307 -1.184,1.839 0,2.146 11.789,3.053 21.07,12.334 24.124,24.124 0.307,1.184 1.839,1.184 2.146,0 3.053,-11.789 12.335,-21.07 24.124,-24.124 1.184,-0.307 1.184,-1.84 0,-2.146 z"/>
</svg>
