<?xml version="1.0" encoding="UTF-8" standalone="no"?>
<!-- Uploaded to: SVG Repo, www.svgrepo.com, Generator: SVG Repo Mixer Tools -->

<svg
   height="800px"
   width="800px"
   version="1.1"
   id="Layer_1"
   viewBox="0 0 512 512"
   xml:space="preserve"
   sodipodi:docname="sc-apps-jewels.svg"
   inkscape:version="1.4 (e7c3feb100, 2024-10-09)"
   xmlns:inkscape="http://www.inkscape.org/namespaces/inkscape"
   xmlns:sodipodi="http://sodipodi.sourceforge.net/DTD/sodipodi-0.dtd"
   xmlns="http://www.w3.org/2000/svg"
   xmlns:svg="http://www.w3.org/2000/svg"><defs
   id="defs10">
	
        
</defs><sodipodi:namedview
   id="namedview10"
   pagecolor="#ffffff"
   bordercolor="#000000"
   borderopacity="0.25"
   inkscape:showpageshadow="2"
   inkscape:pageopacity="0.0"
   inkscape:pagecheckerboard="0"
   inkscape:deskcolor="#d1d1d1"
   inkscape:zoom="1.0146982"
   inkscape:cx="346.40841"
   inkscape:cy="349.85771"
   inkscape:window-width="2560"
   inkscape:window-height="1334"
   inkscape:window-x="0"
   inkscape:window-y="0"
   inkscape:window-maximized="1"
   inkscape:current-layer="g5" />

    
    
    
    
    
    <g
   id="g12"
   transform="translate(0,-8e-5)"><g
     id="g5"
     transform="matrix(0.85043771,0,0,0.85043784,38.477594,38.099421)"><path
       style="fill:#28aef0;stroke:#ffffff;stroke-width:89.6;stroke-linecap:round;stroke-linejoin:round;stroke-miterlimit:39.4;stroke-dasharray:none;stroke-opacity:1;paint-order:markers stroke fill"
       d="M 105.25436,44.15339 H 405.40767 L 512,149.40775 255.55401,468.29276 -0.44599303,149.40775 Z"
       id="path5" /><path
       style="fill:#ffffff"
       d="M 426.244,93.358 C 411.008,89.884 399.013,77.89 395.539,62.652 c -0.262,-1.148 -1.781,-1.148 -2.042,0 -3.474,15.236 -15.468,27.231 -30.705,30.706 -1.148,0.262 -1.148,1.781 0,2.042 15.236,3.474 27.231,15.467 30.705,30.705 0.262,1.148 1.781,1.148 2.042,0 3.474,-15.238 15.468,-27.231 30.705,-30.705 1.147,-0.261 1.147,-1.78 0,-2.042 z"
       id="path9" /><path
       style="fill:#ffffff"
       d="m 386.731,157.426 c -11.789,-3.053 -21.07,-12.335 -24.124,-24.124 -0.307,-1.184 -1.839,-1.184 -2.146,0 -3.053,11.789 -12.335,21.07 -24.124,24.124 -1.184,0.307 -1.184,1.839 0,2.146 11.789,3.053 21.07,12.334 24.124,24.124 0.307,1.184 1.839,1.184 2.146,0 3.053,-11.789 12.335,-21.07 24.124,-24.124 1.184,-0.307 1.184,-1.84 0,-2.146 z"
       id="path10" /></g></g>
</svg>
